# xmcd
#
# Track frame offsets:
#	150
#	19425
#	36075
#	56625
#	71175
#	85275
#	104175
#	120450
#	136125
#	155175
#
# Disc length: 2278 seconds
#
# Revision: 1
# Processed by: cddbd v1.5.2PL0 Copyright (c) Steve Scherf et al.
# Submitted via: audiograbber 1.83.01
#
DISCID=9408e40a
DTITLE=Various Artist - 80's Country 1986-88
DYEAR=1996
DGENRE=Country
TTITLE0="You've Got" The Touch
TTITLE1=I Know Where I'm Going
TTITLE2=You Still Move Me
TTITLE3=I Wanna Dance With You
TTITLE4=Right From The Start
TTITLE5=I Can't Get Close Enough
TTITLE6=Cinderella
TTITLE7=Shine, Shine, Shine
TTITLE8=80's Ladies
TTITLE9=Will The Wolf Survive
EXTD=
EXTT0=
EXTT1=
EXTT2=
EXTT3=
EXTT4=
EXTT5=
EXTT6=
EXTT7=
EXTT8=
EXTT9=
PLAYORDER=
